<mxfile host="Electron" modified="2023-06-09T02:40:21.859Z" agent="Mozilla/5.0 (Macintosh; Intel Mac OS X 10_15_7) AppleWebKit/537.36 (KHTML, like Gecko) draw.io/21.2.8 Chrome/112.0.5615.165 Electron/24.2.0 Safari/537.36" etag="-WgL03GQ9QFddUmyU45L" version="21.2.8" type="device">
  <diagram name="Page-1" id="ZR_54UsUvtrRMmP2e5DB">
    <mxGraphModel dx="1114" dy="894" grid="1" gridSize="10" guides="1" tooltips="1" connect="1" arrows="1" fold="1" page="1" pageScale="1" pageWidth="850" pageHeight="1100" math="1" shadow="0">
      <root>
        <mxCell id="0" />
        <mxCell id="1" parent="0" />
        <mxCell id="JTAQmoYXdliBM9zxk4BZ-1" value="" style="rounded=0;whiteSpace=wrap;html=1;fillColor=#f5f5f5;fontColor=#333333;strokeColor=#666666;" vertex="1" parent="1">
          <mxGeometry x="190" y="105" width="530" height="410" as="geometry" />
        </mxCell>
        <mxCell id="JTAQmoYXdliBM9zxk4BZ-2" value="" style="rounded=0;whiteSpace=wrap;html=1;fillColor=#fff2cc;strokeColor=#d6b656;dashed=1;" vertex="1" parent="1">
          <mxGeometry x="280" y="290" width="120" height="40" as="geometry" />
        </mxCell>
        <mxCell id="JTAQmoYXdliBM9zxk4BZ-3" value="" style="rounded=0;whiteSpace=wrap;html=1;fillColor=#dae8fc;strokeColor=#6c8ebf;" vertex="1" parent="1">
          <mxGeometry x="400" y="290" width="120" height="40" as="geometry" />
        </mxCell>
        <mxCell id="JTAQmoYXdliBM9zxk4BZ-4" value="" style="rounded=0;whiteSpace=wrap;html=1;fillColor=#d5e8d4;strokeColor=#82b366;" vertex="1" parent="1">
          <mxGeometry x="520" y="290" width="120" height="40" as="geometry" />
        </mxCell>
        <mxCell id="JTAQmoYXdliBM9zxk4BZ-5" value="" style="shape=curlyBracket;whiteSpace=wrap;html=1;rounded=1;flipH=1;rotation=90;" vertex="1" parent="1">
          <mxGeometry x="330" y="290" width="20" height="120" as="geometry" />
        </mxCell>
        <mxCell id="JTAQmoYXdliBM9zxk4BZ-6" value="" style="shape=curlyBracket;whiteSpace=wrap;html=1;rounded=1;flipH=1;rotation=90;" vertex="1" parent="1">
          <mxGeometry x="450" y="290" width="20" height="120" as="geometry" />
        </mxCell>
        <mxCell id="JTAQmoYXdliBM9zxk4BZ-7" value="" style="shape=curlyBracket;whiteSpace=wrap;html=1;rounded=1;flipH=1;rotation=90;" vertex="1" parent="1">
          <mxGeometry x="570" y="290" width="20" height="120" as="geometry" />
        </mxCell>
        <mxCell id="JTAQmoYXdliBM9zxk4BZ-8" value="args" style="text;html=1;strokeColor=none;fillColor=none;align=center;verticalAlign=middle;whiteSpace=wrap;rounded=0;fontFamily=SF Mono;" vertex="1" parent="1">
          <mxGeometry x="310" y="360" width="60" height="30" as="geometry" />
        </mxCell>
        <mxCell id="JTAQmoYXdliBM9zxk4BZ-9" value="vars" style="text;html=1;strokeColor=none;fillColor=none;align=center;verticalAlign=middle;whiteSpace=wrap;rounded=0;fontFamily=SF Mono;" vertex="1" parent="1">
          <mxGeometry x="430" y="360" width="60" height="30" as="geometry" />
        </mxCell>
        <mxCell id="JTAQmoYXdliBM9zxk4BZ-10" value="operands" style="text;html=1;strokeColor=none;fillColor=none;align=center;verticalAlign=middle;whiteSpace=wrap;rounded=0;fontFamily=SF Mono;" vertex="1" parent="1">
          <mxGeometry x="550" y="360" width="60" height="30" as="geometry" />
        </mxCell>
        <mxCell id="JTAQmoYXdliBM9zxk4BZ-11" value="" style="shape=curlyBracket;whiteSpace=wrap;html=1;rounded=1;flipH=1;rotation=-90;" vertex="1" parent="1">
          <mxGeometry x="450" y="90" width="20" height="360" as="geometry" />
        </mxCell>
        <mxCell id="JTAQmoYXdliBM9zxk4BZ-12" value="local_buf" style="text;html=1;strokeColor=none;fillColor=none;align=center;verticalAlign=middle;whiteSpace=wrap;rounded=0;fontFamily=SF Mono;" vertex="1" parent="1">
          <mxGeometry x="430" y="230" width="60" height="30" as="geometry" />
        </mxCell>
        <mxCell id="JTAQmoYXdliBM9zxk4BZ-13" value="" style="rounded=0;whiteSpace=wrap;html=1;fillColor=#ffe6cc;strokeColor=#d79b00;" vertex="1" parent="1">
          <mxGeometry x="280" y="610" width="360" height="40" as="geometry" />
        </mxCell>
        <mxCell id="JTAQmoYXdliBM9zxk4BZ-14" value="" style="shape=curlyBracket;whiteSpace=wrap;html=1;rounded=1;flipH=1;rotation=90;" vertex="1" parent="1">
          <mxGeometry x="450" y="488" width="20" height="360" as="geometry" />
        </mxCell>
        <mxCell id="JTAQmoYXdliBM9zxk4BZ-15" value="var_refs" style="text;html=1;strokeColor=none;fillColor=none;align=center;verticalAlign=middle;whiteSpace=wrap;rounded=0;fontFamily=SF Mono;" vertex="1" parent="1">
          <mxGeometry x="430" y="670" width="60" height="30" as="geometry" />
        </mxCell>
        <mxCell id="JTAQmoYXdliBM9zxk4BZ-16" value="&lt;font style=&quot;font-size: 14px;&quot;&gt;$$stack\_frame_{f}$$&lt;/font&gt;" style="text;html=1;strokeColor=none;fillColor=none;align=center;verticalAlign=middle;whiteSpace=wrap;rounded=0;" vertex="1" parent="1">
          <mxGeometry x="230" y="120" width="90" height="30" as="geometry" />
        </mxCell>
        <mxCell id="JTAQmoYXdliBM9zxk4BZ-17" value="" style="rounded=0;whiteSpace=wrap;html=1;fillColor=#e1d5e7;strokeColor=#9673a6;" vertex="1" parent="1">
          <mxGeometry x="280" y="410" width="360" height="40" as="geometry" />
        </mxCell>
        <mxCell id="JTAQmoYXdliBM9zxk4BZ-18" value="" style="shape=curlyBracket;whiteSpace=wrap;html=1;rounded=1;flipH=1;rotation=90;" vertex="1" parent="1">
          <mxGeometry x="450" y="290" width="20" height="360" as="geometry" />
        </mxCell>
        <mxCell id="JTAQmoYXdliBM9zxk4BZ-19" value="var_ref_list" style="text;html=1;strokeColor=none;fillColor=none;align=center;verticalAlign=middle;whiteSpace=wrap;rounded=0;fontFamily=SF Mono;" vertex="1" parent="1">
          <mxGeometry x="430" y="480" width="60" height="30" as="geometry" />
        </mxCell>
        <mxCell id="JTAQmoYXdliBM9zxk4BZ-20" value="&lt;font style=&quot;font-size: 14px;&quot;&gt;$$closure_{f}$$&lt;/font&gt;" style="text;html=1;strokeColor=none;fillColor=none;align=center;verticalAlign=middle;whiteSpace=wrap;rounded=0;" vertex="1" parent="1">
          <mxGeometry x="130" y="615" width="90" height="30" as="geometry" />
        </mxCell>
        <mxCell id="JTAQmoYXdliBM9zxk4BZ-21" value="" style="rounded=0;whiteSpace=wrap;html=1;fillColor=#cdeb8b;strokeColor=#36393d;" vertex="1" parent="1">
          <mxGeometry x="280" y="740" width="360" height="40" as="geometry" />
        </mxCell>
        <mxCell id="JTAQmoYXdliBM9zxk4BZ-22" value="&lt;font style=&quot;font-size: 14px;&quot;&gt;$$closure_{f1}$$&lt;/font&gt;" style="text;html=1;strokeColor=none;fillColor=none;align=center;verticalAlign=middle;whiteSpace=wrap;rounded=0;" vertex="1" parent="1">
          <mxGeometry x="130" y="740" width="90" height="30" as="geometry" />
        </mxCell>
        <mxCell id="JTAQmoYXdliBM9zxk4BZ-23" value="$$*var\_ref_{a}$$" style="rounded=0;whiteSpace=wrap;html=1;fontSize=14;fillColor=#cdeb8b;strokeColor=#36393d;" vertex="1" parent="1">
          <mxGeometry x="280" y="740" width="100" height="40" as="geometry" />
        </mxCell>
        <mxCell id="JTAQmoYXdliBM9zxk4BZ-29" value="$$var\_ref_{a}$$" style="rounded=0;whiteSpace=wrap;html=1;fillColor=#e1d5e7;strokeColor=#9673a6;" vertex="1" parent="1">
          <mxGeometry x="280" y="410" width="70" height="40" as="geometry" />
        </mxCell>
        <mxCell id="JTAQmoYXdliBM9zxk4BZ-30" value="" style="shape=curlyBracket;whiteSpace=wrap;html=1;rounded=1;flipH=1;rotation=90;" vertex="1" parent="1">
          <mxGeometry x="450" y="615" width="20" height="360" as="geometry" />
        </mxCell>
        <mxCell id="JTAQmoYXdliBM9zxk4BZ-31" value="var_refs" style="text;html=1;strokeColor=none;fillColor=none;align=center;verticalAlign=middle;whiteSpace=wrap;rounded=0;fontFamily=SF Mono;" vertex="1" parent="1">
          <mxGeometry x="430" y="810" width="60" height="30" as="geometry" />
        </mxCell>
        <mxCell id="JTAQmoYXdliBM9zxk4BZ-32" value="" style="endArrow=classic;html=1;rounded=0;exitX=0;exitY=0.5;exitDx=0;exitDy=0;entryX=0;entryY=0.5;entryDx=0;entryDy=0;strokeColor=#7EA6E0;" edge="1" parent="1" source="JTAQmoYXdliBM9zxk4BZ-29" target="JTAQmoYXdliBM9zxk4BZ-2">
          <mxGeometry width="50" height="50" relative="1" as="geometry">
            <mxPoint x="400" y="480" as="sourcePoint" />
            <mxPoint x="450" y="430" as="targetPoint" />
            <Array as="points">
              <mxPoint x="230" y="430" />
              <mxPoint x="230" y="310" />
            </Array>
          </mxGeometry>
        </mxCell>
        <mxCell id="JTAQmoYXdliBM9zxk4BZ-33" value="$$*var\_ref_{a}$$" style="rounded=0;whiteSpace=wrap;html=1;fontSize=14;fillColor=#ffe6cc;strokeColor=#d79b00;" vertex="1" parent="1">
          <mxGeometry x="280" y="610" width="100" height="40" as="geometry" />
        </mxCell>
        <mxCell id="JTAQmoYXdliBM9zxk4BZ-34" value="" style="endArrow=classic;html=1;rounded=0;exitX=0;exitY=0.5;exitDx=0;exitDy=0;entryX=0;entryY=0.5;entryDx=0;entryDy=0;strokeColor=#B5739D;" edge="1" parent="1" source="JTAQmoYXdliBM9zxk4BZ-33" target="JTAQmoYXdliBM9zxk4BZ-29">
          <mxGeometry width="50" height="50" relative="1" as="geometry">
            <mxPoint x="400" y="480" as="sourcePoint" />
            <mxPoint x="450" y="430" as="targetPoint" />
            <Array as="points">
              <mxPoint x="230" y="630" />
              <mxPoint x="230" y="430" />
            </Array>
          </mxGeometry>
        </mxCell>
        <mxCell id="JTAQmoYXdliBM9zxk4BZ-35" value="" style="endArrow=classic;html=1;rounded=0;exitX=0;exitY=0.5;exitDx=0;exitDy=0;entryX=0;entryY=0.5;entryDx=0;entryDy=0;strokeColor=#B5739D;" edge="1" parent="1" source="JTAQmoYXdliBM9zxk4BZ-23" target="JTAQmoYXdliBM9zxk4BZ-29">
          <mxGeometry width="50" height="50" relative="1" as="geometry">
            <mxPoint x="400" y="480" as="sourcePoint" />
            <mxPoint x="450" y="430" as="targetPoint" />
            <Array as="points">
              <mxPoint x="230" y="760" />
              <mxPoint x="230" y="430" />
            </Array>
          </mxGeometry>
        </mxCell>
      </root>
    </mxGraphModel>
  </diagram>
</mxfile>
